# xmcd CD database file
#
# Track frame offsets:
#	150
#	21641
#	49338
#	72081
#	94437
#	130075
#	146083
#	173772
#	203778
#
# Disc length: 3082 seconds
#
# Revision: 0
# Processed by: cddbd v1.5.2PL0 Copyright (c) Steve Scherf et al.
# Submitted via: CDex 1.51
#
DISCID=880c0809
DTITLE=Kazumi Watanabe New Electric Trio - Mo' Bop III
DYEAR=2006
DGENRE=Jazz
TTITLE0=Emboss
TTITLE1=Somewhere In Time
TTITLE2=Tiger Beam
TTITLE3=Lawns
TTITLE4=Dragon's Secret
TTITLE5=Good Fellows
TTITLE6=Infancia
TTITLE7=Stolen Moments
TTITLE8=Manhattan Flu Dance
EXTD=YEAR: 2006
EXTT0=
EXTT1=
EXTT2=
EXTT3=
EXTT4=
EXTT5=
EXTT6=
EXTT7=
EXTT8=
PLAYORDER=
